# MagicaVoxel @ Ephtracy

# group
o 

# material
mtllib ship.mtl
usemtl palette

# normals
vn -1 0 0
vn 1 0 0
vn 0 0 1
vn 0 0 -1
vn 0 -1 0
vn 0 1 0

# texcoords
vt 0.732422 0.5
vt 0.849609 0.5
vt 0.962891 0.5
vt 0.990234 0.5

# verts
v -2 -1.5 0.7
v -2 -1.5 0.6
v -2 -1.2 0.7
v -2 -1.2 0.6
v -2 -1 0.7
v -2 -1 0.6
v -2 -0.6 0.7
v -2 -0.6 0.6
v -1.8 -0.6 0.7
v -1.8 -0.6 0.6
v -1.8 0 0.7
v -1.8 0 0.6
v -1 -2 0.3
v -1 -2 0.1
v -1 -2 0
v -1 -2 -0.2
v -1 -1.7 0.1
v -1 -1.7 0
v -1 -0.4 0.3
v -1 -0.4 -0.2
v -0.9 0 0.7
v -0.9 0 0.6
v -0.9 0.4 0.7
v -0.9 0.4 0.6
v -0.7 0.6 0.3
v -0.7 0.6 0.1
v -0.7 1.7 0.3
v -0.7 1.7 0.1
v -0.6 -2 0.2
v -0.6 -2 -0.1
v -0.6 -1.7 0.2
v -0.6 -1.7 -0.1
v -0.5 -1.5 0.6
v -0.5 -1.5 0.3
v -0.5 -1.5 -0.2
v -0.5 -1.5 -1
v -0.5 -0.5 0.3
v -0.5 -0.4 0.3
v -0.5 -0.4 -0.2
v -0.5 -0.4 -0.4
v -0.5 -0.4 -1
v -0.5 0.0999999 -0.3
v -0.5 0.0999999 -0.4
v -0.5 0.4 0.7
v -0.5 0.4 0.6
v -0.5 0.6 0.3
v -0.5 0.6 0.1
v -0.5 0.7 0.3
v -0.5 0.8 -0.3
v -0.5 0.8 -0.4
v -0.5 1.6 0.3
v -0.5 1.7 0.3
v -0.5 1.7 0.1
v -0.5 1.8 0.7
v -0.5 1.8 0.3
v -0.5 2 0.3
v -0.5 2 -0.4
v -0.4 -0.4 -0.4
v -0.4 -0.4 -0.9
v -0.4 0.0999999 -0.3
v -0.4 0.0999999 -0.4
v -0.4 0.0999999 -0.9
v -0.4 0.8 -0.3
v -0.4 0.8 -0.4
v -0.3 -2 -0.3
v -0.3 -2 -0.6
v -0.3 -2 -0.7
v -0.3 -2 -1
v -0.3 -1.8 -0.6
v -0.3 -1.8 -0.7
v -0.3 -1.5 -0.3
v -0.3 -1.5 -1
v -0.2 -1.5 -1
v -0.2 -1.5 -1.4
v -0.2 -1.2 -1.3
v -0.2 -1.2 -1.4
v -0.2 -1.1 -1.2
v -0.2 -1.1 -1.3
v -0.2 -1 -1
v -0.2 -1 -1.2
v 0.0999999 -2 -0.5
v 0.0999999 -2 -0.6
v 0.0999999 -2 -0.7
v 0.0999999 -2 -0.8
v 0.0999999 -1.9 -0.8
v 0.0999999 -1.8 -0.5
v 0.0999999 -1.8 -0.6
v 0.0999999 -1.8 -0.7
v 0.0999999 -1.8 -0.8
v 0.2 1.8 0.2
v 0.2 1.8 -0.3
v 0.2 1.9 0.2
v 0.2 1.9 -0.3
v 0.2 2 0.2
v 0.2 2 -0.3
v 0.5 -2 0.3
v 0.5 -2 -0.2
v 0.5 -1.5 0.3
v 0.5 -1.5 -0.2
v 0.9 -2 0.2
v 0.9 -2 0.1
v 0.9 -2 0
v 0.9 -2 -0.1
v 0.9 -1.7 0.2
v 0.9 -1.7 0.1
v 0.9 -1.7 0
v 0.9 -1.7 -0.1
v -0.9 -2 0.2
v -0.9 -2 0.1
v -0.9 -2 0
v -0.9 -2 -0.1
v -0.9 -1.7 0.2
v -0.9 -1.7 0.1
v -0.9 -1.7 0
v -0.9 -1.7 -0.1
v -0.5 -2 0.3
v -0.5 -2 -0.2
v -0.5 -1.5 0.3
v -0.5 -1.5 -0.2
v -0.2 1.8 0.2
v -0.2 1.8 -0.3
v -0.2 1.9 0.2
v -0.2 1.9 -0.3
v -0.2 2 0.2
v -0.2 2 -0.3
v -0.1 -2 -0.5
v -0.1 -2 -0.6
v -0.1 -2 -0.7
v -0.1 -2 -0.8
v -0.1 -1.9 -0.8
v -0.1 -1.8 -0.5
v -0.1 -1.8 -0.6
v -0.1 -1.8 -0.7
v -0.1 -1.8 -0.8
v 0.2 -1.5 -1
v 0.2 -1.5 -1.4
v 0.2 -1.2 -1.3
v 0.2 -1.2 -1.4
v 0.2 -1.1 -1.2
v 0.2 -1.1 -1.3
v 0.2 -1 -1
v 0.2 -1 -1.2
v 0.3 -2 -0.3
v 0.3 -2 -0.6
v 0.3 -2 -0.7
v 0.3 -2 -1
v 0.3 -1.8 -0.6
v 0.3 -1.8 -0.7
v 0.3 -1.5 -0.3
v 0.3 -1.5 -1
v 0.4 -0.4 -0.4
v 0.4 -0.4 -0.9
v 0.4 0.0999999 -0.3
v 0.4 0.0999999 -0.4
v 0.4 0.0999999 -0.9
v 0.4 0.8 -0.3
v 0.4 0.8 -0.4
v 0.5 -1.5 0.6
v 0.5 -1.5 0.3
v 0.5 -1.5 -0.2
v 0.5 -1.5 -1
v 0.5 -0.5 0.3
v 0.5 -0.4 0.3
v 0.5 -0.4 -0.2
v 0.5 -0.4 -0.4
v 0.5 -0.4 -1
v 0.5 0.0999999 -0.3
v 0.5 0.0999999 -0.4
v 0.5 0.4 0.7
v 0.5 0.4 0.6
v 0.5 0.6 0.3
v 0.5 0.6 0.1
v 0.5 0.7 0.3
v 0.5 0.8 -0.3
v 0.5 0.8 -0.4
v 0.5 1.6 0.3
v 0.5 1.7 0.3
v 0.5 1.7 0.1
v 0.5 1.8 0.7
v 0.5 1.8 0.3
v 0.5 2 0.3
v 0.5 2 -0.4
v 0.6 -2 0.2
v 0.6 -2 -0.1
v 0.6 -1.7 0.2
v 0.6 -1.7 -0.1
v 0.7 0.6 0.3
v 0.7 0.6 0.1
v 0.7 1.7 0.3
v 0.7 1.7 0.1
v 0.9 0 0.7
v 0.9 0 0.6
v 0.9 0.4 0.7
v 0.9 0.4 0.6
v 1 -2 0.3
v 1 -2 0.1
v 1 -2 0
v 1 -2 -0.2
v 1 -1.7 0.1
v 1 -1.7 0
v 1 -0.4 0.3
v 1 -0.4 -0.2
v 1.8 -0.6 0.7
v 1.8 -0.6 0.6
v 1.8 0 0.7
v 1.8 0 0.6
v 2 -1.5 0.7
v 2 -1.5 0.6
v 2 -1.2 0.7
v 2 -1.2 0.6
v 2 -1 0.7
v 2 -1 0.6
v 2 -0.6 0.7
v 2 -0.6 0.6
v -2 -1.5 0.7
v -2 -1.2 0.7
v -2 -1 0.7
v -2 -0.6 0.7
v -1.8 -0.6 0.7
v -1.8 0 0.7
v -1.6 -1 0.7
v -1.6 0 0.7
v -1.4 -1 0.7
v -1.4 0 0.7
v -0.9 0 0.7
v -0.9 0.4 0.7
v -0.8 -1.2 0.7
v -0.8 -1.1 0.7
v -0.6 -1.1 0.7
v -0.6 -1 0.7
v -0.5 0.4 0.7
v -0.5 1.8 0.7
v 0.5 0.4 0.7
v 0.5 1.8 0.7
v 0.6 -1.1 0.7
v 0.6 -1 0.7
v 0.8 -1.2 0.7
v 0.8 -1.1 0.7
v 0.9 0 0.7
v 0.9 0.4 0.7
v 1.4 -1 0.7
v 1.4 0 0.7
v 1.6 -1 0.7
v 1.6 0 0.7
v 1.8 -0.6 0.7
v 1.8 0 0.7
v 2 -1.5 0.7
v 2 -1.2 0.7
v 2 -1 0.7
v 2 -0.6 0.7
v -1 -2 0.3
v -1 -0.4 0.3
v -0.9 -1.7 0.3
v -0.9 -0.5 0.3
v -0.7 0.6 0.3
v -0.7 1.7 0.3
v -0.6 -1.7 0.3
v -0.6 -1.5 0.3
v -0.6 0.7 0.3
v -0.6 1.6 0.3
v -0.5 -2 0.3
v -0.5 -1.5 0.3
v -0.5 -0.5 0.3
v -0.5 -0.4 0.3
v -0.5 0.6 0.3
v -0.5 0.7 0.3
v -0.5 1.6 0.3
v -0.5 1.7 0.3
v -0.5 1.8 0.3
v -0.5 2 0.3
v -0.4 1.8 0.3
v -0.4 1.9 0.3
v 0.4 1.8 0.3
v 0.4 1.9 0.3
v 0.5 -2 0.3
v 0.5 -1.5 0.3
v 0.5 -0.5 0.3
v 0.5 -0.4 0.3
v 0.5 0.6 0.3
v 0.5 0.7 0.3
v 0.5 1.6 0.3
v 0.5 1.7 0.3
v 0.5 1.8 0.3
v 0.5 2 0.3
v 0.6 -1.7 0.3
v 0.6 -1.5 0.3
v 0.6 0.7 0.3
v 0.6 1.6 0.3
v 0.7 0.6 0.3
v 0.7 1.7 0.3
v 0.9 -1.7 0.3
v 0.9 -0.5 0.3
v 1 -2 0.3
v 1 -0.4 0.3
v -1 -2 0
v -1 -1.7 0
v -0.9 -2 0
v -0.9 -1.7 0
v 0.9 -2 0
v 0.9 -1.7 0
v 1 -2 0
v 1 -1.7 0
v -0.9 -2 -0.1
v -0.9 -1.7 -0.1
v -0.6 -2 -0.1
v -0.6 -1.7 -0.1
v 0.6 -2 -0.1
v 0.6 -1.7 -0.1
v 0.9 -2 -0.1
v 0.9 -1.7 -0.1
v -0.3 -2 -0.3
v -0.3 -1.5 -0.3
v -0.2 -1.9 -0.3
v -0.2 -1.5 -0.3
v -0.2 1.8 -0.3
v -0.2 1.9 -0.3
v -0.2 2 -0.3
v 0.2 -1.9 -0.3
v 0.2 -1.5 -0.3
v 0.2 1.8 -0.3
v 0.2 1.9 -0.3
v 0.2 2 -0.3
v 0.3 -2 -0.3
v 0.3 -1.5 -0.3
v -0.3 -2 -0.7
v -0.3 -1.8 -0.7
v -0.1 -2 -0.7
v -0.1 -1.8 -0.7
v 0.0999999 -2 -0.7
v 0.0999999 -1.8 -0.7
v 0.3 -2 -0.7
v 0.3 -1.8 -0.7
v -0.1 -2 -0.8
v -0.1 -1.9 -0.8
v -0.1 -1.8 -0.8
v 0.0999999 -2 -0.8
v 0.0999999 -1.9 -0.8
v 0.0999999 -1.8 -0.8
v -2 -1.5 0.6
v -2 -1.2 0.6
v -2 -1 0.6
v -2 -0.6 0.6
v -1.8 -0.6 0.6
v -1.8 0 0.6
v -1.6 -1 0.6
v -1.6 0 0.6
v -1.4 -1 0.6
v -1.4 0 0.6
v -0.9 0 0.6
v -0.9 0.4 0.6
v -0.8 -1.2 0.6
v -0.8 -1.1 0.6
v -0.6 -1.1 0.6
v -0.6 -1 0.6
v -0.5 -1.5 0.6
v -0.5 0.4 0.6
v 0.5 -1.5 0.6
v 0.5 0.4 0.6
v 0.6 -1.1 0.6
v 0.6 -1 0.6
v 0.8 -1.2 0.6
v 0.8 -1.1 0.6
v 0.9 0 0.6
v 0.9 0.4 0.6
v 1.4 -1 0.6
v 1.4 0 0.6
v 1.6 -1 0.6
v 1.6 0 0.6
v 1.8 -0.6 0.6
v 1.8 0 0.6
v 2 -1.5 0.6
v 2 -1.2 0.6
v 2 -1 0.6
v 2 -0.6 0.6
v -0.9 -2 0.2
v -0.9 -1.7 0.2
v -0.6 -2 0.2
v -0.6 -1.7 0.2
v -0.2 1.8 0.2
v -0.2 1.9 0.2
v -0.2 2 0.2
v 0.2 1.8 0.2
v 0.2 1.9 0.2
v 0.2 2 0.2
v 0.6 -2 0.2
v 0.6 -1.7 0.2
v 0.9 -2 0.2
v 0.9 -1.7 0.2
v -1 -2 0.1
v -1 -1.7 0.1
v -0.9 -2 0.1
v -0.9 -1.7 0.1
v -0.7 0.6 0.1
v -0.7 1.7 0.1
v -0.5 0.6 0.1
v -0.5 1.7 0.1
v 0.5 0.6 0.1
v 0.5 1.7 0.1
v 0.7 0.6 0.1
v 0.7 1.7 0.1
v 0.9 -2 0.1
v 0.9 -1.7 0.1
v 1 -2 0.1
v 1 -1.7 0.1
v -1 -2 -0.2
v -1 -0.4 -0.2
v -0.5 -2 -0.2
v -0.5 -1.5 -0.2
v -0.5 -0.4 -0.2
v 0.5 -2 -0.2
v 0.5 -1.5 -0.2
v 0.5 -0.4 -0.2
v 1 -2 -0.2
v 1 -0.4 -0.2
v -0.5 0.0999999 -0.3
v -0.5 0.8 -0.3
v -0.4 0.0999999 -0.3
v -0.4 0.8 -0.3
v 0.4 0.0999999 -0.3
v 0.4 0.8 -0.3
v 0.5 0.0999999 -0.3
v 0.5 0.8 -0.3
v -0.5 -0.4 -0.4
v -0.5 0.0999999 -0.4
v -0.5 0.8 -0.4
v -0.5 2 -0.4
v -0.4 -0.4 -0.4
v -0.4 0.0999999 -0.4
v -0.4 0.8 -0.4
v -0.1 0.0999999 -0.4
v -0.1 1.6 -0.4
v 0.0999999 0.0999999 -0.4
v 0.0999999 1.6 -0.4
v 0.4 -0.4 -0.4
v 0.4 0.0999999 -0.4
v 0.4 0.8 -0.4
v 0.5 -0.4 -0.4
v 0.5 0.0999999 -0.4
v 0.5 0.8 -0.4
v 0.5 2 -0.4
v -0.1 -2 -0.5
v -0.1 -1.8 -0.5
v 0.0999999 -2 -0.5
v 0.0999999 -1.8 -0.5
v -0.3 -2 -0.6
v -0.3 -1.8 -0.6
v -0.1 -2 -0.6
v -0.1 -1.8 -0.6
v 0.0999999 -2 -0.6
v 0.0999999 -1.8 -0.6
v 0.3 -2 -0.6
v 0.3 -1.8 -0.6
v -0.4 -0.4 -0.9
v -0.4 0.0999999 -0.9
v 0.4 -0.4 -0.9
v 0.4 0.0999999 -0.9
v -0.5 -1.5 -1
v -0.5 -0.4 -1
v -0.3 -2 -1
v -0.3 -1.5 -1
v -0.2 -1.9 -1
v -0.2 -1.5 -1
v -0.2 -1 -1
v 0.2 -1.9 -1
v 0.2 -1.5 -1
v 0.2 -1 -1
v 0.3 -2 -1
v 0.3 -1.5 -1
v 0.5 -1.5 -1
v 0.5 -0.4 -1
v -0.2 -1.1 -1.2
v -0.2 -1 -1.2
v 0.2 -1.1 -1.2
v 0.2 -1 -1.2
v -0.2 -1.2 -1.3
v -0.2 -1.1 -1.3
v 0.2 -1.2 -1.3
v 0.2 -1.1 -1.3
v -0.2 -1.5 -1.4
v -0.2 -1.2 -1.4
v 0.2 -1.5 -1.4
v 0.2 -1.2 -1.4
v -1 -2 0.3
v -0.5 -2 0.3
v 0.5 -2 0.3
v 1 -2 0.3
v -0.9 -2 0.2
v -0.6 -2 0.2
v 0.6 -2 0.2
v 0.9 -2 0.2
v -1 -2 0.1
v -0.9 -2 0.1
v 0.9 -2 0.1
v 1 -2 0.1
v -1 -2 0
v -0.9 -2 0
v 0.9 -2 0
v 1 -2 0
v -0.9 -2 -0.1
v -0.6 -2 -0.1
v 0.6 -2 -0.1
v 0.9 -2 -0.1
v -1 -2 -0.2
v -0.5 -2 -0.2
v 0.5 -2 -0.2
v 1 -2 -0.2
v -0.3 -2 -0.3
v 0.3 -2 -0.3
v -0.1 -2 -0.5
v 0.0999999 -2 -0.5
v -0.3 -2 -0.6
v -0.1 -2 -0.6
v 0.0999999 -2 -0.6
v 0.3 -2 -0.6
v -0.3 -2 -0.7
v -0.1 -2 -0.7
v 0.0999999 -2 -0.7
v 0.3 -2 -0.7
v -0.1 -2 -0.8
v 0.0999999 -2 -0.8
v -0.3 -2 -1
v 0.3 -2 -1
v -0.1 -1.8 -0.5
v 0.0999999 -1.8 -0.5
v -0.3 -1.8 -0.6
v -0.1 -1.8 -0.6
v 0.0999999 -1.8 -0.6
v 0.3 -1.8 -0.6
v -0.3 -1.8 -0.7
v -0.1 -1.8 -0.7
v 0.0999999 -1.8 -0.7
v 0.3 -1.8 -0.7
v -0.1 -1.8 -0.8
v 0.0999999 -1.8 -0.8
v -0.9 -1.7 0.2
v -0.6 -1.7 0.2
v 0.6 -1.7 0.2
v 0.9 -1.7 0.2
v -1 -1.7 0.1
v -0.9 -1.7 0.1
v 0.9 -1.7 0.1
v 1 -1.7 0.1
v -1 -1.7 0
v -0.9 -1.7 0
v 0.9 -1.7 0
v 1 -1.7 0
v -0.9 -1.7 -0.1
v -0.6 -1.7 -0.1
v 0.6 -1.7 -0.1
v 0.9 -1.7 -0.1
v -2 -1.5 0.7
v 2 -1.5 0.7
v -2 -1.5 0.6
v -0.5 -1.5 0.6
v 0.5 -1.5 0.6
v 2 -1.5 0.6
v -0.5 -1.5 0.3
v 0.5 -1.5 0.3
v -0.5 -1.5 -0.2
v 0.5 -1.5 -0.2
v -0.3 -1.5 -0.3
v -0.2 -1.5 -0.3
v 0.2 -1.5 -0.3
v 0.3 -1.5 -0.3
v -0.5 -1.5 -1
v -0.3 -1.5 -1
v -0.2 -1.5 -1
v 0.2 -1.5 -1
v 0.3 -1.5 -1
v 0.5 -1.5 -1
v -0.2 -1.5 -1.4
v 0.2 -1.5 -1.4
v -0.7 0.6 0.3
v -0.5 0.6 0.3
v 0.5 0.6 0.3
v 0.7 0.6 0.3
v -0.7 0.6 0.1
v -0.5 0.6 0.1
v 0.5 0.6 0.1
v 0.7 0.6 0.1
v -0.5 0.8 -0.3
v -0.4 0.8 -0.3
v 0.4 0.8 -0.3
v 0.5 0.8 -0.3
v -0.5 0.8 -0.4
v -0.4 0.8 -0.4
v 0.4 0.8 -0.4
v 0.5 0.8 -0.4
v -0.2 -1.2 -1.3
v 0.2 -1.2 -1.3
v -0.2 -1.2 -1.4
v 0.2 -1.2 -1.4
v -0.2 -1.1 -1.2
v 0.2 -1.1 -1.2
v -0.2 -1.1 -1.3
v 0.2 -1.1 -1.3
v -0.2 -1 -1
v 0.2 -1 -1
v -0.2 -1 -1.2
v 0.2 -1 -1.2
v -2 -0.6 0.7
v -1.8 -0.6 0.7
v 1.8 -0.6 0.7
v 2 -0.6 0.7
v -2 -0.6 0.6
v -1.8 -0.6 0.6
v 1.8 -0.6 0.6
v 2 -0.6 0.6
v -1 -0.4 0.3
v -0.5 -0.4 0.3
v 0.5 -0.4 0.3
v 1 -0.4 0.3
v -1 -0.4 -0.2
v -0.5 -0.4 -0.2
v 0.5 -0.4 -0.2
v 1 -0.4 -0.2
v -0.5 -0.4 -0.4
v -0.4 -0.4 -0.4
v 0.4 -0.4 -0.4
v 0.5 -0.4 -0.4
v -0.4 -0.4 -0.9
v 0.4 -0.4 -0.9
v -0.5 -0.4 -1
v 0.5 -0.4 -1
v -1.8 0 0.7
v -1.6 0 0.7
v -1.4 0 0.7
v -0.9 0 0.7
v 0.9 0 0.7
v 1.4 0 0.7
v 1.6 0 0.7
v 1.8 0 0.7
v -1.8 0 0.6
v -1.6 0 0.6
v -1.4 0 0.6
v -0.9 0 0.6
v 0.9 0 0.6
v 1.4 0 0.6
v 1.6 0 0.6
v 1.8 0 0.6
v -0.5 0.0999999 -0.3
v -0.4 0.0999999 -0.3
v 0.4 0.0999999 -0.3
v 0.5 0.0999999 -0.3
v -0.5 0.0999999 -0.4
v -0.4 0.0999999 -0.4
v -0.1 0.0999999 -0.4
v 0.0999999 0.0999999 -0.4
v 0.4 0.0999999 -0.4
v 0.5 0.0999999 -0.4
v -0.4 0.0999999 -0.9
v 0.4 0.0999999 -0.9
v -0.9 0.4 0.7
v -0.5 0.4 0.7
v 0.5 0.4 0.7
v 0.9 0.4 0.7
v -0.9 0.4 0.6
v -0.5 0.4 0.6
v 0.5 0.4 0.6
v 0.9 0.4 0.6
v -0.7 1.7 0.3
v -0.5 1.7 0.3
v 0.5 1.7 0.3
v 0.7 1.7 0.3
v -0.7 1.7 0.1
v -0.5 1.7 0.1
v 0.5 1.7 0.1
v 0.7 1.7 0.1
v -0.5 1.8 0.7
v 0.5 1.8 0.7
v -0.5 1.8 0.3
v -0.4 1.8 0.3
v 0.4 1.8 0.3
v 0.5 1.8 0.3
v -0.2 1.8 0.2
v 0.2 1.8 0.2
v -0.2 1.8 -0.3
v 0.2 1.8 -0.3
v -0.5 2 0.3
v 0.5 2 0.3
v -0.2 2 0.2
v 0.2 2 0.2
v -0.2 2 -0.3
v 0.2 2 -0.3
v -0.5 2 -0.4
v 0.5 2 -0.4

# faces
f 3/3/1 2/3/1 1/3/1
f 4/3/1 2/3/1 3/3/1
f 5/2/1 4/2/1 3/2/1
f 6/2/1 4/2/1 5/2/1
f 7/3/1 6/3/1 5/3/1
f 8/3/1 6/3/1 7/3/1
f 11/3/1 10/3/1 9/3/1
f 12/3/1 10/3/1 11/3/1
f 17/4/1 14/4/1 13/4/1
f 18/4/1 16/4/1 15/4/1
f 19/4/1 17/4/1 13/4/1
f 19/4/1 18/4/1 17/4/1
f 20/4/1 16/4/1 18/4/1
f 20/4/1 18/4/1 19/4/1
f 23/3/1 22/3/1 21/3/1
f 24/3/1 22/3/1 23/3/1
f 27/3/1 26/3/1 25/3/1
f 28/3/1 26/3/1 27/3/1
f 31/4/1 30/4/1 29/4/1
f 32/4/1 30/4/1 31/4/1
f 37/3/1 34/3/1 33/3/1
f 38/3/1 37/3/1 33/3/1
f 39/3/1 36/3/1 35/3/1
f 40/3/1 36/3/1 39/3/1
f 41/3/1 36/3/1 40/3/1
f 42/3/1 39/3/1 38/3/1
f 42/3/1 40/3/1 39/3/1
f 43/3/1 40/3/1 42/3/1
f 45/3/1 38/3/1 33/3/1
f 45/3/1 42/3/1 38/3/1
f 46/3/1 42/3/1 45/3/1
f 46/3/1 45/3/1 44/3/1
f 47/3/1 42/3/1 46/3/1
f 48/3/1 46/3/1 44/3/1
f 49/3/1 42/3/1 47/3/1
f 51/3/1 48/3/1 44/3/1
f 52/3/1 51/3/1 44/3/1
f 53/3/1 50/3/1 49/3/1
f 53/3/1 49/3/1 47/3/1
f 54/3/1 52/3/1 44/3/1
f 54/3/1 53/3/1 52/3/1
f 55/3/1 53/3/1 54/3/1
f 56/3/1 53/3/1 55/3/1
f 57/3/1 50/3/1 53/3/1
f 57/3/1 53/3/1 56/3/1
f 61/1/1 59/1/1 58/1/1
f 62/1/1 59/1/1 61/1/1
f 63/3/1 61/3/1 60/3/1
f 64/3/1 61/3/1 63/3/1
f 69/4/1 66/4/1 65/4/1
f 70/4/1 68/4/1 67/4/1
f 71/4/1 69/4/1 65/4/1
f 71/4/1 70/4/1 69/4/1
f 72/4/1 68/4/1 70/4/1
f 72/4/1 70/4/1 71/4/1
f 75/2/1 74/2/1 73/2/1
f 76/2/1 74/2/1 75/2/1
f 77/2/1 75/2/1 73/2/1
f 78/2/1 75/2/1 77/2/1
f 79/2/1 77/2/1 73/2/1
f 80/2/1 77/2/1 79/2/1
f 85/4/1 84/4/1 83/4/1
f 86/4/1 82/4/1 81/4/1
f 87/4/1 82/4/1 86/4/1
f 88/4/1 85/4/1 83/4/1
f 89/4/1 85/4/1 88/4/1
f 92/2/1 91/2/1 90/2/1
f 93/2/1 91/2/1 92/2/1
f 94/3/1 93/3/1 92/3/1
f 95/3/1 93/3/1 94/3/1
f 98/4/1 97/4/1 96/4/1
f 99/4/1 97/4/1 98/4/1
f 104/4/1 101/4/1 100/4/1
f 105/4/1 101/4/1 104/4/1
f 106/4/1 103/4/1 102/4/1
f 107/4/1 103/4/1 106/4/1
f 108/4/2 109/4/2 112/4/2
f 112/4/2 109/4/2 113/4/2
f 110/4/2 111/4/2 114/4/2
f 114/4/2 111/4/2 115/4/2
f 116/4/2 117/4/2 118/4/2
f 118/4/2 117/4/2 119/4/2
f 120/2/2 121/2/2 122/2/2
f 122/2/2 121/2/2 123/2/2
f 122/3/2 123/3/2 124/3/2
f 124/3/2 123/3/2 125/3/2
f 128/4/2 129/4/2 130/4/2
f 126/4/2 127/4/2 131/4/2
f 131/4/2 127/4/2 132/4/2
f 128/4/2 130/4/2 133/4/2
f 133/4/2 130/4/2 134/4/2
f 135/2/2 136/2/2 137/2/2
f 137/2/2 136/2/2 138/2/2
f 135/2/2 137/2/2 139/2/2
f 139/2/2 137/2/2 140/2/2
f 135/2/2 139/2/2 141/2/2
f 141/2/2 139/2/2 142/2/2
f 143/4/2 144/4/2 147/4/2
f 145/4/2 146/4/2 148/4/2
f 143/4/2 147/4/2 149/4/2
f 147/4/2 148/4/2 149/4/2
f 148/4/2 146/4/2 150/4/2
f 149/4/2 148/4/2 150/4/2
f 151/1/2 152/1/2 154/1/2
f 154/1/2 152/1/2 155/1/2
f 153/3/2 154/3/2 156/3/2
f 156/3/2 154/3/2 157/3/2
f 158/3/2 159/3/2 162/3/2
f 158/3/2 162/3/2 163/3/2
f 160/3/2 161/3/2 164/3/2
f 164/3/2 161/3/2 165/3/2
f 165/3/2 161/3/2 166/3/2
f 163/3/2 164/3/2 167/3/2
f 164/3/2 165/3/2 167/3/2
f 167/3/2 165/3/2 168/3/2
f 158/3/2 163/3/2 170/3/2
f 163/3/2 167/3/2 170/3/2
f 170/3/2 167/3/2 171/3/2
f 169/3/2 170/3/2 171/3/2
f 171/3/2 167/3/2 172/3/2
f 169/3/2 171/3/2 173/3/2
f 172/3/2 167/3/2 174/3/2
f 169/3/2 173/3/2 176/3/2
f 169/3/2 176/3/2 177/3/2
f 174/3/2 175/3/2 178/3/2
f 172/3/2 174/3/2 178/3/2
f 169/3/2 177/3/2 179/3/2
f 177/3/2 178/3/2 179/3/2
f 179/3/2 178/3/2 180/3/2
f 180/3/2 178/3/2 181/3/2
f 178/3/2 175/3/2 182/3/2
f 181/3/2 178/3/2 182/3/2
f 183/4/2 184/4/2 185/4/2
f 185/4/2 184/4/2 186/4/2
f 187/3/2 188/3/2 189/3/2
f 189/3/2 188/3/2 190/3/2
f 191/3/2 192/3/2 193/3/2
f 193/3/2 192/3/2 194/3/2
f 195/4/2 196/4/2 199/4/2
f 197/4/2 198/4/2 200/4/2
f 195/4/2 199/4/2 201/4/2
f 199/4/2 200/4/2 201/4/2
f 200/4/2 198/4/2 202/4/2
f 201/4/2 200/4/2 202/4/2
f 203/3/2 204/3/2 205/3/2
f 205/3/2 204/3/2 206/3/2
f 207/3/2 208/3/2 209/3/2
f 209/3/2 208/3/2 210/3/2
f 209/2/2 210/2/2 211/2/2
f 211/2/2 210/2/2 212/2/2
f 211/3/2 212/3/2 213/3/2
f 213/3/2 212/3/2 214/3/2
f 219/3/3 218/3/3 217/3/3
f 221/2/3 217/2/3 216/2/3
f 221/3/3 220/3/3 219/3/3
f 221/3/3 219/3/3 217/3/3
f 222/3/3 220/3/3 221/3/3
f 223/2/3 221/2/3 216/2/3
f 223/2/3 222/2/3 221/2/3
f 224/2/3 222/2/3 223/2/3
f 225/3/3 224/3/3 223/3/3
f 227/3/3 216/3/3 215/3/3
f 227/2/3 223/2/3 216/2/3
f 228/2/3 223/2/3 227/2/3
f 229/3/3 228/3/3 227/3/3
f 229/2/3 223/2/3 228/2/3
f 230/3/3 226/3/3 225/3/3
f 230/2/3 223/2/3 229/2/3
f 230/3/3 225/3/3 223/3/3
f 231/3/3 230/3/3 229/3/3
f 231/3/3 226/3/3 230/3/3
f 233/3/3 231/3/3 229/3/3
f 233/3/3 232/3/3 231/3/3
f 234/3/3 232/3/3 233/3/3
f 235/3/3 229/3/3 227/3/3
f 235/3/3 233/3/3 229/3/3
f 236/3/3 233/3/3 235/3/3
f 237/3/3 227/3/3 215/3/3
f 237/3/3 235/3/3 227/3/3
f 238/2/3 236/2/3 235/2/3
f 238/3/3 235/3/3 237/3/3
f 239/3/3 233/3/3 236/3/3
f 240/3/3 233/3/3 239/3/3
f 241/2/3 236/2/3 238/2/3
f 241/2/3 238/2/3 237/2/3
f 241/3/3 239/3/3 236/3/3
f 242/3/3 239/3/3 241/3/3
f 243/2/3 241/2/3 237/2/3
f 243/2/3 242/2/3 241/2/3
f 244/2/3 242/2/3 243/2/3
f 245/3/3 244/3/3 243/3/3
f 246/3/3 244/3/3 245/3/3
f 247/3/3 237/3/3 215/3/3
f 248/2/3 243/2/3 237/2/3
f 248/3/3 237/3/3 247/3/3
f 249/3/3 245/3/3 243/3/3
f 249/2/3 243/2/3 248/2/3
f 250/3/3 245/3/3 249/3/3
f 253/4/3 252/4/3 251/4/3
f 254/4/3 252/4/3 253/4/3
f 257/4/3 253/4/3 251/4/3
f 257/3/3 254/3/3 253/3/3
f 258/3/3 254/3/3 257/3/3
f 259/3/3 256/3/3 255/3/3
f 260/3/3 256/3/3 259/3/3
f 261/4/3 257/4/3 251/4/3
f 261/4/3 258/4/3 257/4/3
f 262/3/3 254/3/3 258/3/3
f 262/4/3 258/4/3 261/4/3
f 263/4/3 252/4/3 254/4/3
f 263/3/3 254/3/3 262/3/3
f 264/4/3 252/4/3 263/4/3
f 265/3/3 259/3/3 255/3/3
f 266/2/3 260/2/3 259/2/3
f 266/3/3 259/3/3 265/3/3
f 267/3/3 256/3/3 260/3/3
f 267/2/3 260/2/3 266/2/3
f 268/3/3 256/3/3 267/3/3
f 271/3/3 270/3/3 269/3/3
f 272/3/3 270/3/3 271/3/3
f 273/2/3 272/2/3 271/2/3
f 274/3/3 270/3/3 272/3/3
f 274/2/3 272/2/3 273/2/3
f 283/3/3 274/3/3 273/3/3
f 284/3/3 270/3/3 274/3/3
f 284/3/3 274/3/3 283/3/3
f 285/4/3 276/4/3 275/4/3
f 286/3/3 277/3/3 276/3/3
f 286/4/3 276/4/3 285/4/3
f 287/3/3 280/3/3 279/3/3
f 287/2/3 281/2/3 280/2/3
f 288/3/3 282/3/3 281/3/3
f 288/2/3 281/2/3 287/2/3
f 289/3/3 287/3/3 279/3/3
f 289/3/3 288/3/3 287/3/3
f 290/3/3 282/3/3 288/3/3
f 290/3/3 288/3/3 289/3/3
f 291/4/3 285/4/3 275/4/3
f 291/3/3 286/3/3 285/3/3
f 292/4/3 278/4/3 277/4/3
f 292/3/3 286/3/3 291/3/3
f 292/3/3 277/3/3 286/3/3
f 293/4/3 291/4/3 275/4/3
f 293/4/3 292/4/3 291/4/3
f 294/4/3 278/4/3 292/4/3
f 294/4/3 292/4/3 293/4/3
f 297/4/3 296/4/3 295/4/3
f 298/4/3 296/4/3 297/4/3
f 301/4/3 300/4/3 299/4/3
f 302/4/3 300/4/3 301/4/3
f 305/4/3 304/4/3 303/4/3
f 306/4/3 304/4/3 305/4/3
f 309/4/3 308/4/3 307/4/3
f 310/4/3 308/4/3 309/4/3
f 313/4/3 312/4/3 311/4/3
f 314/4/3 312/4/3 313/4/3
f 318/4/3 313/4/3 311/4/3
f 318/3/3 314/3/3 313/3/3
f 319/3/3 314/3/3 318/3/3
f 320/3/3 317/3/3 316/3/3
f 320/3/3 316/3/3 315/3/3
f 321/3/3 317/3/3 320/3/3
f 322/3/3 317/3/3 321/3/3
f 323/4/3 319/4/3 318/4/3
f 323/4/3 318/4/3 311/4/3
f 324/4/3 319/4/3 323/4/3
f 327/4/3 326/4/3 325/4/3
f 328/4/3 326/4/3 327/4/3
f 331/4/3 330/4/3 329/4/3
f 332/4/3 330/4/3 331/4/3
f 336/4/3 334/4/3 333/4/3
f 337/2/3 335/2/3 334/2/3
f 337/4/3 334/4/3 336/4/3
f 338/2/3 335/2/3 337/2/3
f 341/3/4 342/3/4 343/3/4
f 340/2/4 341/2/4 345/2/4
f 343/3/4 344/3/4 345/3/4
f 341/3/4 343/3/4 345/3/4
f 345/3/4 344/3/4 346/3/4
f 340/2/4 345/2/4 347/2/4
f 345/2/4 346/2/4 347/2/4
f 347/2/4 346/2/4 348/2/4
f 347/3/4 348/3/4 349/3/4
f 339/3/4 340/3/4 351/3/4
f 340/2/4 347/2/4 351/2/4
f 351/2/4 347/2/4 352/2/4
f 351/3/4 352/3/4 353/3/4
f 352/2/4 347/2/4 353/2/4
f 349/3/4 350/3/4 354/3/4
f 353/2/4 347/2/4 354/2/4
f 347/3/4 349/3/4 354/3/4
f 351/3/4 353/3/4 355/3/4
f 339/3/4 351/3/4 355/3/4
f 353/3/4 354/3/4 355/3/4
f 354/3/4 350/3/4 356/3/4
f 355/3/4 354/3/4 356/3/4
f 357/3/4 358/3/4 359/3/4
f 359/3/4 358/3/4 360/3/4
f 357/3/4 359/3/4 361/3/4
f 359/2/4 360/2/4 362/2/4
f 361/3/4 359/3/4 362/3/4
f 360/3/4 358/3/4 363/3/4
f 363/3/4 358/3/4 364/3/4
f 362/2/4 360/2/4 365/2/4
f 361/2/4 362/2/4 365/2/4
f 360/3/4 363/3/4 365/3/4
f 365/3/4 363/3/4 366/3/4
f 361/2/4 365/2/4 367/2/4
f 365/2/4 366/2/4 367/2/4
f 367/2/4 366/2/4 368/2/4
f 367/3/4 368/3/4 369/3/4
f 369/3/4 368/3/4 370/3/4
f 357/3/4 361/3/4 371/3/4
f 361/2/4 367/2/4 372/2/4
f 371/3/4 361/3/4 372/3/4
f 367/3/4 369/3/4 373/3/4
f 372/2/4 367/2/4 373/2/4
f 373/3/4 369/3/4 374/3/4
f 375/4/4 376/4/4 377/4/4
f 377/4/4 376/4/4 378/4/4
f 379/2/4 380/2/4 382/2/4
f 380/3/4 381/3/4 383/3/4
f 382/2/4 380/2/4 383/2/4
f 383/3/4 381/3/4 384/3/4
f 385/4/4 386/4/4 387/4/4
f 387/4/4 386/4/4 388/4/4
f 389/4/4 390/4/4 391/4/4
f 391/4/4 390/4/4 392/4/4
f 393/3/4 394/3/4 395/3/4
f 395/3/4 394/3/4 396/3/4
f 397/3/4 398/3/4 399/3/4
f 399/3/4 398/3/4 400/3/4
f 401/4/4 402/4/4 403/4/4
f 403/4/4 402/4/4 404/4/4
f 405/4/4 406/4/4 407/4/4
f 407/4/4 406/4/4 408/4/4
f 408/4/4 406/4/4 409/4/4
f 410/4/4 411/4/4 413/4/4
f 411/4/4 412/4/4 413/4/4
f 413/4/4 412/4/4 414/4/4
f 415/3/4 416/3/4 417/3/4
f 417/3/4 416/3/4 418/3/4
f 419/3/4 420/3/4 421/3/4
f 421/3/4 420/3/4 422/3/4
f 423/3/4 424/3/4 427/3/4
f 427/3/4 424/3/4 428/3/4
f 425/3/4 426/3/4 429/3/4
f 428/3/4 429/3/4 430/3/4
f 429/3/4 426/3/4 431/3/4
f 430/3/4 429/3/4 431/3/4
f 430/2/4 431/2/4 432/2/4
f 431/3/4 426/3/4 433/3/4
f 432/2/4 431/2/4 433/2/4
f 432/3/4 433/3/4 435/3/4
f 435/3/4 433/3/4 436/3/4
f 434/3/4 435/3/4 437/3/4
f 437/3/4 435/3/4 438/3/4
f 436/3/4 433/3/4 439/3/4
f 433/3/4 426/3/4 440/3/4
f 439/3/4 433/3/4 440/3/4
f 441/4/4 442/4/4 443/4/4
f 443/4/4 442/4/4 444/4/4
f 445/4/4 446/4/4 447/4/4
f 447/4/4 446/4/4 448/4/4
f 449/4/4 450/4/4 451/4/4
f 451/4/4 450/4/4 452/4/4
f 453/1/4 454/1/4 455/1/4
f 455/1/4 454/1/4 456/1/4
f 457/3/4 458/3/4 460/3/4
f 459/4/4 460/4/4 461/4/4
f 460/3/4 458/3/4 462/3/4
f 461/4/4 460/4/4 462/4/4
f 462/3/4 458/3/4 463/3/4
f 459/4/4 461/4/4 464/4/4
f 461/3/4 462/3/4 464/3/4
f 464/3/4 462/3/4 465/3/4
f 463/3/4 458/3/4 466/3/4
f 464/4/4 465/4/4 467/4/4
f 459/4/4 464/4/4 467/4/4
f 465/3/4 466/3/4 468/3/4
f 467/4/4 465/4/4 468/4/4
f 468/3/4 466/3/4 469/3/4
f 466/3/4 458/3/4 470/3/4
f 469/3/4 466/3/4 470/3/4
f 471/2/4 472/2/4 473/2/4
f 473/2/4 472/2/4 474/2/4
f 475/2/4 476/2/4 477/2/4
f 477/2/4 476/2/4 478/2/4
f 479/2/4 480/2/4 481/2/4
f 481/2/4 480/2/4 482/2/4
f 487/4/5 484/4/5 483/4/5
f 488/4/5 484/4/5 487/4/5
f 489/4/5 486/4/5 485/4/5
f 490/4/5 486/4/5 489/4/5
f 491/4/5 487/4/5 483/4/5
f 492/4/5 487/4/5 491/4/5
f 493/4/5 486/4/5 490/4/5
f 494/4/5 486/4/5 493/4/5
f 499/4/5 496/4/5 495/4/5
f 500/4/5 484/4/5 488/4/5
f 501/4/5 489/4/5 485/4/5
f 502/4/5 498/4/5 497/4/5
f 503/4/5 499/4/5 495/4/5
f 503/4/5 500/4/5 499/4/5
f 504/4/5 484/4/5 500/4/5
f 504/4/5 500/4/5 503/4/5
f 505/4/5 502/4/5 501/4/5
f 505/4/5 501/4/5 485/4/5
f 506/4/5 498/4/5 502/4/5
f 506/4/5 502/4/5 505/4/5
f 509/4/5 508/4/5 507/4/5
f 510/4/5 508/4/5 509/4/5
f 511/4/5 509/4/5 507/4/5
f 512/4/5 509/4/5 511/4/5
f 513/4/5 508/4/5 510/4/5
f 514/4/5 508/4/5 513/4/5
f 519/4/5 516/4/5 515/4/5
f 520/4/5 518/4/5 517/4/5
f 521/4/5 519/4/5 515/4/5
f 521/4/5 520/4/5 519/4/5
f 522/4/5 518/4/5 520/4/5
f 522/4/5 520/4/5 521/4/5
f 526/4/5 524/4/5 523/4/5
f 527/4/5 524/4/5 526/4/5
f 529/4/5 526/4/5 525/4/5
f 529/4/5 528/4/5 527/4/5
f 529/4/5 527/4/5 526/4/5
f 530/4/5 528/4/5 529/4/5
f 531/4/5 528/4/5 530/4/5
f 532/4/5 528/4/5 531/4/5
f 533/4/5 531/4/5 530/4/5
f 534/4/5 531/4/5 533/4/5
f 540/4/5 536/4/5 535/4/5
f 541/4/5 538/4/5 537/4/5
f 543/4/5 540/4/5 539/4/5
f 544/4/5 536/4/5 540/4/5
f 544/4/5 540/4/5 543/4/5
f 545/4/5 542/4/5 541/4/5
f 545/4/5 541/4/5 537/4/5
f 546/4/5 542/4/5 545/4/5
f 547/4/5 536/4/5 544/4/5
f 548/4/5 536/4/5 547/4/5
f 549/4/5 545/4/5 537/4/5
f 550/4/5 545/4/5 549/4/5
f 553/3/5 552/3/5 551/3/5
f 554/3/5 552/3/5 553/3/5
f 555/3/5 552/3/5 554/3/5
f 556/3/5 552/3/5 555/3/5
f 557/3/5 555/3/5 554/3/5
f 558/3/5 555/3/5 557/3/5
f 559/3/5 558/3/5 557/3/5
f 560/3/5 558/3/5 559/3/5
f 561/3/5 560/3/5 559/3/5
f 562/3/5 560/3/5 561/3/5
f 563/3/5 560/3/5 562/3/5
f 564/3/5 560/3/5 563/3/5
f 565/3/5 561/3/5 559/3/5
f 566/3/5 561/3/5 565/3/5
f 569/3/5 560/3/5 564/3/5
f 570/3/5 560/3/5 569/3/5
f 571/2/5 568/2/5 567/2/5
f 572/2/5 568/2/5 571/2/5
f 577/3/5 574/3/5 573/3/5
f 578/3/5 574/3/5 577/3/5
f 579/3/5 576/3/5 575/3/5
f 580/3/5 576/3/5 579/3/5
f 585/3/5 582/3/5 581/3/5
f 586/3/5 582/3/5 585/3/5
f 587/3/5 584/3/5 583/3/5
f 588/3/5 584/3/5 587/3/5
f 589/2/6 590/2/6 591/2/6
f 591/2/6 590/2/6 592/2/6
f 593/2/6 594/2/6 595/2/6
f 595/2/6 594/2/6 596/2/6
f 597/2/6 598/2/6 599/2/6
f 599/2/6 598/2/6 600/2/6
f 601/3/6 602/3/6 605/3/6
f 605/3/6 602/3/6 606/3/6
f 603/3/6 604/3/6 607/3/6
f 607/3/6 604/3/6 608/3/6
f 609/4/6 610/4/6 613/4/6
f 613/4/6 610/4/6 614/4/6
f 611/4/6 612/4/6 615/4/6
f 615/4/6 612/4/6 616/4/6
f 617/3/6 618/3/6 621/3/6
f 619/3/6 620/3/6 622/3/6
f 617/3/6 621/3/6 623/3/6
f 621/3/6 622/3/6 623/3/6
f 622/3/6 620/3/6 624/3/6
f 623/3/6 622/3/6 624/3/6
f 625/3/6 626/3/6 633/3/6
f 626/2/6 627/2/6 634/2/6
f 633/3/6 626/3/6 634/3/6
f 627/3/6 628/3/6 635/3/6
f 634/2/6 627/2/6 635/2/6
f 635/3/6 628/3/6 636/3/6
f 629/3/6 630/3/6 637/3/6
f 630/2/6 631/2/6 638/2/6
f 637/3/6 630/3/6 638/3/6
f 631/3/6 632/3/6 639/3/6
f 638/2/6 631/2/6 639/2/6
f 639/3/6 632/3/6 640/3/6
f 641/3/6 642/3/6 645/3/6
f 645/3/6 642/3/6 646/3/6
f 643/3/6 644/3/6 649/3/6
f 649/3/6 644/3/6 650/3/6
f 647/1/6 648/1/6 651/1/6
f 648/1/6 649/1/6 651/1/6
f 646/1/6 647/1/6 651/1/6
f 651/1/6 649/1/6 652/1/6
f 653/3/6 654/3/6 657/3/6
f 657/3/6 654/3/6 658/3/6
f 655/3/6 656/3/6 659/3/6
f 659/3/6 656/3/6 660/3/6
f 661/3/6 662/3/6 665/3/6
f 665/3/6 662/3/6 666/3/6
f 663/3/6 664/3/6 667/3/6
f 667/3/6 664/3/6 668/3/6
f 669/3/6 670/3/6 671/3/6
f 671/3/6 670/3/6 672/3/6
f 672/3/6 670/3/6 673/3/6
f 673/3/6 670/3/6 674/3/6
f 675/2/6 676/2/6 677/2/6
f 677/2/6 676/2/6 678/2/6
f 679/3/6 680/3/6 681/3/6
f 681/3/6 680/3/6 682/3/6
f 679/3/6 681/3/6 683/3/6
f 682/3/6 680/3/6 684/3/6
f 679/3/6 683/3/6 685/3/6
f 683/3/6 684/3/6 685/3/6
f 684/3/6 680/3/6 686/3/6
f 685/3/6 684/3/6 686/3/6
